HIERARCHY
ROOT Hips
{
  OFFSET 0 0 0
  CHANNELS 6 Xposition Yposition Zposition Zrotation Yrotation Xrotation
  JOINT LeftThigh
  {
    OFFSET 8.409438 0 -5.917753
    CHANNELS 3 Zrotation Yrotation Xrotation
    JOINT LeftLeg
    {
      OFFSET 0 0 -42.358652
      CHANNELS 3 Zrotation Yrotation Xrotation
      JOINT LeftFoot
      {
        OFFSET 0 0 -39.357303
        CHANNELS 3 Zrotation Yrotation Xrotation
      }
    }
  }
  JOINT RightThigh
  {
    OFFSET -8.409438 0 -5.917753
    CHANNELS 3 Zrotation Yrotation Xrotation
    JOINT RightLeg
    {
      OFFSET 0 0 -42.358652
      CHANNELS 3 Zrotation Yrotation Xrotation
      JOINT RightFoot
      {
        OFFSET 0 0 -39.357303
        CHANNELS 3 Zrotation Yrotation Xrotation
      }
    }
  }
  JOINT SpineLow
  {
    OFFSET 0 0 4.719101
    CHANNELS 3 Zrotation Yrotation Xrotation
    JOINT SpineMid
    {
      OFFSET 0 0 12.899191
      CHANNELS 3 Zrotation Yrotation Xrotation
      JOINT Chest
      {
        OFFSET 0 0 12.899191
        CHANNELS 3 Zrotation Yrotation Xrotation
        JOINT LeftShoulder
        {
          OFFSET 7.550562 1.41573 9.438202
          CHANNELS 3 Zrotation Yrotation Xrotation
          JOINT LeftArm
          {
            OFFSET 9.155056 0 4.247191
            CHANNELS 3 Zrotation Yrotation Xrotation
            JOINT LeftForearm
            {
              OFFSET 0 0 25.771955
              CHANNELS 3 Zrotation Yrotation Xrotation
              JOINT LeftHand
              {
                OFFSET 0 0 25.197169
                CHANNELS 3 Zrotation Yrotation Xrotation
              }
            }
          }
        }
        JOINT RightShoulder
        {
          OFFSET -7.550562 1.41573 9.438202
          CHANNELS 3 Zrotation Yrotation Xrotation
          JOINT RightArm
          {
            OFFSET -9.155056 0 4.247191
            CHANNELS 3 Zrotation Yrotation Xrotation
            JOINT RightForearm
            {
              OFFSET 0 0 -25.771955
              CHANNELS 3 Zrotation Yrotation Xrotation
              JOINT RightHand
              {
                OFFSET 0 0 -25.197169
                CHANNELS 3 Zrotation Yrotation Xrotation
              }
            }
          }
        }
        JOINT Neck
        {
          OFFSET 0 0 15.101124
          CHANNELS 3 Zrotation Yrotation Xrotation
          JOINT Head
          {
            OFFSET 0 0 11.325843
            CHANNELS 3 Zrotation Yrotation Xrotation
            End Site
            {
              OFFSET 0 0 14.157303
            }
          }
        }
      }
    }
  }
}
MOTION
Frames: 5
Frame Time: 0.0
0.0  93.25843  0.0  -11.891672  -29.205964  -89.014027  29.770798  -31.407682  -27.010929  4.511779  2.942138  32.676523  1.180327  1.633625  2.564037  11.575727  7.167213  14.914274  -22.452288  -7.632918  0.796107  -3.301394  2.016942  -3.632893  2.899852  -1.82401  -0.060342  7.944838  -4.970243  -0.384171  7.944839  -4.970243  -0.384171  -29.873803  15.706335  -3.604717  -140.198239  66.489652  -87.845652  -30.158659  -1.148982  80.137436  38.987247  -16.982624  17.831499  -5.659812  -10.398023  19.583471  97.946453  39.545385  28.689627  -18.016649  -13.269747  -110.53984  70.050328  27.774744  5.13578  12.027471  0.174217  5.919342  9.019917  0.247329  4.438115  
0.0  93.25843  0.0  -12.138789  -28.820675  -88.583226  30.23952  -31.147039  -27.710107  4.730804  2.273627  32.472826  0.70171  1.533474  2.530846  11.412089  6.792411  14.291709  -23.100791  -7.890886  1.064588  -3.167039  2.22449  -3.736854  2.806431  -1.942402  -0.12822  7.69655  -5.2862  -0.576666  7.69655  -5.286201  -0.576666  -29.775441  16.128965  -3.181728  -140.923679  65.614233  -88.244829  -30.323474  -1.241925  80.113795  38.87833  -16.796071  17.787321  -5.431549  -9.959486  19.61464  97.558333  39.882192  28.593581  -18.090641  -13.656509  -110.485819  70.097451  27.939168  4.876168  12.134688  0.359207  6.045917  9.098496  0.38971  4.52941  
0.0  93.25843  0.0  -12.27353  -28.645207  -88.06643  31.165862  -30.780507  -28.518495  4.485875  2.064335  32.104223  0.565731  1.425043  2.569294  10.9351  6.755353  13.615833  -23.822044  -7.948819  1.287492  -2.288951  2.15772  -3.818353  2.819447  -1.968972  -0.198802  7.73845  -5.350301  -0.773868  7.738449  -5.350301  -0.773868  -30.106907  16.124289  -3.000109  -142.428296  65.502477  -89.093446  -30.735488  -1.888006  79.840759  38.738201  -16.826038  17.696522  -5.475542  -10.092025  19.537461  97.526164  40.322917  28.685693  -18.461734  -13.976526  -110.354934  70.286151  28.049637  4.670675  11.95586  0.262978  5.96596  8.965331  0.314155  4.471349  
0.0  93.25843  0.0  -12.415314  -28.467513  -87.688994  32.006394  -30.74942  -29.212749  4.126787  2.391583  31.721495  0.783514  1.316109  2.610132  10.308038  6.637939  13.284758  -24.099146  -7.805724  1.250642  -1.429841  1.914265  -3.903801  2.842785  -1.97838  -0.221222  7.80441  -5.372991  -0.838192  7.804409  -5.372991  -0.838192  -30.517735  16.01578  -3.199699  -144.374698  65.474208  -90.492435  -30.887522  -2.541847  79.803028  38.859474  -16.836788  17.607799  -5.373742  -10.386434  19.341005  97.559523  40.923572  28.796431  -19.147355  -14.041011  -110.130617  70.474708  28.030161  4.536695  11.744587  0.122016  5.749172  8.808218  0.202134  4.311423  
0.0  93.25843  0.0  -12.515669  -28.37801  -87.476464  32.7706  -31.055305  -29.7454  3.987681  3.147077  31.283073  0.93335  1.240941  2.447215  9.864172  6.347306  13.277117  -25.848136  -8.363133  1.046708  0.482819  2.430209  -3.84087  2.797626  -1.990887  -0.184661  7.678064  -5.41206  -0.736019  7.678064  -5.41206  -0.736019  -30.460641  15.971394  -3.673122  -146.223704  65.618644  -91.750771  -30.919343  -3.354497  79.674253  39.024219  -16.905139  17.673282  -4.724659  -10.67717  18.904777  97.714667  41.548612  28.912113  -20.030083  -13.862682  -109.773253  70.715195  27.904603  4.567025  11.541157  -0.039921  5.316775  8.656994  0.070524  3.990023  
